<?xml version="1.0" encoding="UTF-8"?>
<svg id="Layer_2" data-name="Layer 2" xmlns="http://www.w3.org/2000/svg" viewBox="0 0 271.9 271.9">
  <defs>
    <style>
      .cls-1 {
        fill: #fff;
      }
    </style>
  </defs>
  <g id="Layer_1-2" data-name="Layer 1">
    <g>
      <path d="M242.7,242.7c-22.29,23.36-64.52,28.65-106.75,29.2-42.23-.55-84.46-5.84-106.75-29.2C5.84,220.41.55,178.18,0,135.95.55,93.72,5.84,51.49,29.2,29.2,51.49,5.84,93.72.55,135.95,0c42.23.55,84.46,5.84,106.75,29.2,23.36,22.29,28.65,64.52,29.2,106.75-.55,42.23-5.84,84.46-29.2,106.75Z"/>
      <g>
        <path class="cls-1" d="M107.31,40.12l-24.58,15.29c-1.92-2.45-4.58-3.84-7.99-4.18-3.4-.34-6.89.54-10.47,2.65-3.17,1.87-5.48,4.07-6.91,6.6-1.44,2.53-1.52,4.87-.26,7.02.99,1.69,2.54,2.77,4.65,3.25,2.11.48,5.19.01,9.24-1.41l18.3-6.64c9.48-3.44,17.42-4.5,23.85-3.19,6.42,1.32,11.48,5.12,15.19,11.41,3.46,5.88,4.76,12.01,3.89,18.37-.87,6.37-3.58,12.5-8.12,18.41-4.55,5.91-10.65,11.12-18.33,15.64-12.23,7.19-23.35,10.35-33.37,9.46-10.02-.88-18.05-5.27-24.06-13.16l26.57-16.46c2.45,2.76,5.4,4.21,8.86,4.34,3.45.14,7.1-.92,10.94-3.18,3.53-2.08,6.01-4.42,7.44-7.01,1.43-2.6,1.53-4.95.3-7.04-2.14-3.63-7.07-4.06-14.81-1.3l-16.68,5.89c-9.51,3.39-17.59,4.25-24.25,2.59-6.66-1.66-11.93-5.79-15.81-12.39-3.4-5.78-4.74-11.6-4.03-17.46.72-5.86,3.28-11.55,7.67-17.07,4.4-5.51,10.49-10.56,18.26-15.14,11.61-6.83,22.19-9.78,31.72-8.85,9.54.93,17.13,5.45,22.79,13.55Z"/>
        <path class="cls-1" d="M219.97,151.08l-24.58,15.29c-1.92-2.45-4.58-3.84-7.99-4.18-3.4-.34-6.89.54-10.47,2.65-3.17,1.87-5.48,4.07-6.91,6.6-1.44,2.53-1.52,4.87-.26,7.02.99,1.69,2.54,2.77,4.65,3.25,2.11.48,5.19.01,9.24-1.41l18.3-6.64c9.48-3.44,17.42-4.5,23.85-3.19,6.42,1.32,11.48,5.12,15.19,11.41,3.46,5.88,4.76,12.01,3.89,18.37-.87,6.37-3.58,12.5-8.12,18.41-4.55,5.91-10.65,11.12-18.33,15.64-12.23,7.19-23.35,10.35-33.37,9.46-10.02-.88-18.05-5.27-24.06-13.16l26.57-16.46c2.45,2.76,5.4,4.21,8.86,4.34,3.45.14,7.1-.92,10.94-3.18,3.53-2.08,6.01-4.42,7.44-7.01,1.43-2.6,1.53-4.95.3-7.04-2.14-3.63-7.07-4.06-14.81-1.3l-16.68,5.89c-9.51,3.39-17.59,4.25-24.25,2.59-6.66-1.66-11.93-5.79-15.81-12.39-3.4-5.78-4.74-11.6-4.03-17.46.72-5.86,3.28-11.55,7.67-17.07,4.4-5.51,10.49-10.56,18.26-15.14,11.61-6.83,22.19-9.78,31.72-8.85,9.54.93,17.13,5.45,22.79,13.55Z"/>
        <path class="cls-1" d="M224.72,105.88c2.94-3.34,6.58-5.24,10.93-5.68,4.34-.45,8.1.72,11.26,3.51,3.16,2.78,4.79,6.35,4.88,10.7.09,4.35-1.34,8.19-4.28,11.53-2.98,3.39-6.62,5.3-10.92,5.75-4.3.44-8.04-.73-11.2-3.51-3.16-2.78-4.81-6.35-4.94-10.69-.13-4.35,1.29-8.21,4.27-11.6ZM151.85,20.78l74.73,65.74-20.93,23.8-74.73-65.74,20.93-23.8Z"/>
        <path class="cls-1" d="M32.43,167.85c-4.3.58-8.09-.45-11.36-3.12-3.26-2.66-5.03-6.15-5.3-10.47-.27-4.32,1.02-8.22,3.87-11.72s6.37-5.49,10.67-6.11c4.3-.63,8.09.39,11.35,3.06,3.27,2.66,5.04,6.18,5.31,10.53.28,4.36-1,8.26-3.81,11.71-2.85,3.49-6.43,5.54-10.74,6.12ZM119.05,244.19l-77.13-62.91,20.03-24.56,77.13,62.91-20.03,24.56Z"/>
      </g>
    </g>
  </g>
</svg>